<svg width="28" height="38" viewBox="0 0 28 38" fill="none" xmlns="http://www.w3.org/2000/svg">
<path d="M15.125 18.4375V12.235C15.125 11.9366 15.0065 11.6505 14.7955 11.4395C14.5845 11.2285 14.2984 11.11 14 11.11C13.7016 11.11 13.4155 11.2285 13.2045 11.4395C12.9935 11.6505 12.875 11.9366 12.875 12.235V18.9888C12.875 19.3363 13.0362 19.665 13.3112 19.8787L17.14 22.84C17.2566 22.931 17.39 22.998 17.5327 23.0372C17.6753 23.0763 17.8243 23.0867 17.971 23.0679C18.1177 23.0491 18.2592 23.0013 18.3873 22.9275C18.5155 22.8536 18.6277 22.755 18.7175 22.6375C18.808 22.5206 18.8746 22.3871 18.9134 22.2445C18.9523 22.1019 18.9627 21.953 18.944 21.8064C18.9253 21.6598 18.8779 21.5183 18.8045 21.39C18.7311 21.2617 18.6332 21.1492 18.5163 21.0588L15.125 18.4375Z" fill="#626C83"/>
<path d="M21.8587 5.76625L21.4025 3.37375C21.2412 2.53061 20.7912 1.77001 20.1299 1.22273C19.4685 0.675455 18.6372 0.375696 17.7788 0.375H10.22C9.36191 0.375691 8.53086 0.675318 7.86975 1.22236C7.20864 1.76941 6.75877 2.5297 6.5975 3.3725L6.14125 5.76625C3.075 6.15625 0.6875 8.75375 0.6875 11.925V26.075C0.6875 29.245 3.075 31.8438 6.14125 32.2337L6.5975 34.6262C6.75878 35.4694 7.20878 36.23 7.87012 36.7773C8.53147 37.3245 9.36283 37.6243 10.2213 37.625H17.7788C18.6369 37.6241 19.468 37.3245 20.1293 36.7775C20.7906 36.2305 21.2407 35.4703 21.4025 34.6275L21.8587 32.2337C24.925 31.8438 27.3125 29.2463 27.3125 26.075V11.925C27.3125 8.75375 24.925 6.15625 21.8587 5.76625ZM10.22 2.625H17.7788C18.1136 2.62497 18.438 2.74185 18.6958 2.95546C18.9537 3.16906 19.1289 3.46599 19.1912 3.795L19.5513 5.6875H8.44625L8.8075 3.7925C8.87078 3.46417 9.04634 3.16809 9.30407 2.95507C9.5618 2.74204 9.88563 2.62534 10.22 2.625ZM17.7788 35.375H10.2213C9.88639 35.375 9.56203 35.2581 9.30416 35.0445C9.04628 34.8309 8.87106 34.534 8.80875 34.205L8.44875 32.3125H19.5538L19.1925 34.2062C19.1292 34.5349 18.9535 34.8313 18.6956 35.0446C18.4376 35.2578 18.1135 35.3746 17.7788 35.375ZM25.0625 26.075C25.0612 27.132 24.6406 28.1454 23.893 28.8927C23.1455 29.64 22.132 30.0603 21.075 30.0613H6.925C5.86797 30.0603 4.8545 29.64 4.10695 28.8927C3.3594 28.1454 2.93882 27.132 2.9375 26.075V11.925C2.93882 10.868 3.3594 9.85463 4.10695 9.10732C4.8545 8.36 5.86797 7.93974 6.925 7.93875H21.075C22.132 7.93974 23.1455 8.36 23.893 9.10732C24.6406 9.85463 25.0612 10.868 25.0625 11.925V26.075Z" fill="#626C83"/>
</svg>
