<svg width="16" height="18" viewBox="0 0 16 18" fill="none" xmlns="http://www.w3.org/2000/svg">
<path d="M10.3807 13.2348C11.9595 13.0475 13.4819 12.6763 14.9259 12.1432C13.7286 10.8142 12.9998 9.0547 12.9998 7.125V6.54099C12.9999 6.52734 13 6.51368 13 6.5C13 3.73858 10.7614 1.5 8 1.5C5.23858 1.5 3 3.73858 3 6.5L2.99984 7.125C2.99984 9.0547 2.27106 10.8142 1.07373 12.1432C2.51784 12.6763 4.04036 13.0475 5.61928 13.2348M10.3807 13.2348C9.59999 13.3274 8.80547 13.375 7.99984 13.375C7.19431 13.375 6.3999 13.3274 5.61928 13.2348M10.3807 13.2348C10.4582 13.4759 10.5 13.7331 10.5 14C10.5 15.3807 9.38071 16.5 8 16.5C6.61929 16.5 5.5 15.3807 5.5 14C5.5 13.7331 5.54183 13.476 5.61928 13.2348" stroke="#40444C" stroke-width="2" stroke-linecap="round" stroke-linejoin="round"/>
</svg>
