<svg width="16" height="16" viewBox="0 0 16 16" fill="none" xmlns="http://www.w3.org/2000/svg">
<path d="M1.5 4.5C1.5 10.0228 5.97715 14.5 11.5 14.5H13C13.8284 14.5 14.5 13.8284 14.5 13V12.0856C14.5 11.7414 14.2658 11.4414 13.9319 11.358L10.9831 10.6208C10.6904 10.5476 10.3823 10.657 10.2012 10.8984L9.5544 11.7608C9.36668 12.0111 9.04201 12.1218 8.74823 12.0142C6.5436 11.2066 4.79344 9.45641 3.98584 7.25177C3.87823 6.95799 3.98891 6.63332 4.2392 6.4456L5.10161 5.79879C5.34302 5.61773 5.45241 5.30964 5.37922 5.01689L4.64202 2.0681C4.55856 1.73422 4.25857 1.5 3.91442 1.5H3C2.17157 1.5 1.5 2.17157 1.5 3V4.5Z" stroke="#0A274F" stroke-width="1.4" stroke-linecap="round" stroke-linejoin="round"/>
</svg>
