<svg width="36" height="30" viewBox="0 0 36 30" fill="none" xmlns="http://www.w3.org/2000/svg">
<path d="M9.37814 5.2915C8.77634 6.25589 7.76879 6.88996 6.64334 7.0499C6.01092 7.13977 5.38089 7.23704 4.75332 7.34162C2.99853 7.63403 1.75 9.17771 1.75 10.9567V25C1.75 27.0711 3.42893 28.75 5.5 28.75H30.5C32.5711 28.75 34.25 27.0711 34.25 25V10.9567C34.25 9.17773 33.0015 7.63404 31.2467 7.34163C30.6191 7.23706 29.9891 7.13979 29.3567 7.04991C28.2312 6.88997 27.2237 6.2559 26.6219 5.29151L25.2532 3.09815C24.6224 2.08728 23.549 1.43064 22.3592 1.36675C20.9159 1.28925 19.4626 1.25 18 1.25C16.5374 1.25 15.0841 1.28925 13.6408 1.36675C12.451 1.43064 11.3776 2.08728 10.7468 3.09815L9.37814 5.2915Z" stroke="#626C83" stroke-width="2" stroke-linecap="round" stroke-linejoin="round"/>
<path d="M25.5 16.25C25.5 20.3921 22.1421 23.75 18 23.75C13.8579 23.75 10.5 20.3921 10.5 16.25C10.5 12.1079 13.8579 8.75 18 8.75C22.1421 8.75 25.5 12.1079 25.5 16.25Z" stroke="#626C83" stroke-width="2" stroke-linecap="round" stroke-linejoin="round"/>
<path d="M29.25 12.5H29.2625V12.5125H29.25V12.5Z" stroke="#626C83" stroke-width="2" stroke-linecap="round" stroke-linejoin="round"/>
</svg>
