<svg width="36" height="28" viewBox="0 0 36 28" fill="none" xmlns="http://www.w3.org/2000/svg">
<path d="M33.9334 12.2667L32.5001 10.6167H33.1167C34.1834 10.6167 35.0501 9.75 35.0501 8.68334V8.05C35.0501 6.98334 34.1834 6.11667 33.1167 6.11667H32.5667C32.1001 6.11667 31.7334 6.48333 31.7334 6.95C31.7334 7.41667 32.1001 7.78334 32.5667 7.78334H33.1167C33.2667 7.78334 33.3834 7.9 33.3834 8.05V8.68334C33.3834 8.83334 33.2667 8.95 33.1167 8.95H31.9501L30.7001 4.86667C30.3122 3.59293 29.5237 2.47835 28.4517 1.68862C27.3797 0.898898 26.0815 0.476188 24.7501 0.483335H11.2501C8.50008 0.483335 6.11675 2.25 5.30008 4.86667L4.05008 8.95H2.88341C2.73341 8.95 2.61675 8.83334 2.61675 8.68334V8.05C2.61675 7.9 2.73341 7.78334 2.88341 7.78334H3.43341C3.90008 7.78334 4.26675 7.41667 4.26675 6.95C4.26675 6.48333 3.90008 6.11667 3.43341 6.11667H2.88341C1.81675 6.11667 0.950081 6.98334 0.950081 8.05V8.68334C0.950081 9.75 1.81675 10.6167 2.88341 10.6167H3.50008L2.06675 12.2667C1.16675 13.3 0.666748 14.6333 0.666748 16.0167V20.8C0.666748 21.8167 1.23341 22.7 2.08341 23.1667V25.05C2.08341 26.4333 3.20008 27.55 4.58341 27.55H7.45008C8.83342 27.55 9.95008 26.4333 9.95008 25.05V23.5167H26.0501V25.05C26.0501 26.4333 27.1667 27.55 28.5501 27.55H31.4167C32.8001 27.55 33.9167 26.4333 33.9167 25.05V23.1667C34.7501 22.7 35.3334 21.8333 35.3334 20.8V16.0167C35.3334 14.6333 34.8334 13.3 33.9334 12.2667ZM3.33341 13.3667L4.93341 11.5333C5.0142 11.4496 5.07166 11.3462 5.10008 11.2333L5.43341 10.15L5.48341 10L6.91675 5.36667C7.20282 4.43599 7.77959 3.62146 8.56246 3.04256C9.34533 2.46366 10.2931 2.15085 11.2667 2.15H24.7501C26.7667 2.15 28.5167 3.43334 29.1001 5.36667L30.5334 10C30.5334 10 30.5501 10.1 30.5834 10.15L30.9167 11.2333C30.9452 11.3462 31.0026 11.4496 31.0834 11.5333L32.6834 13.3667C33.3167 14.1 33.6834 15.05 33.6834 16.0333V18.45H29.8834C29.3334 18.45 28.8667 18 28.8667 17.4333V16.3667C28.8667 15.8167 29.3167 15.35 29.8834 15.35H31.9167C32.3834 15.35 32.7501 14.9833 32.7501 14.5167C32.7501 14.05 32.3834 13.6833 31.9167 13.6833H29.8834C28.4001 13.6833 27.2001 14.8833 27.2001 16.3667V17.4333C27.2001 18.9167 28.4001 20.1167 29.8834 20.1167H33.6834V20.8167C33.6834 21.3833 33.2167 21.85 32.6501 21.85H24.0834V19C24.0834 18.5333 23.7167 18.1667 23.2501 18.1667H12.7834C12.3167 18.1667 11.9501 18.5333 11.9501 19V21.85H3.38341C2.81675 21.85 2.35008 21.3833 2.35008 20.8167V20.1167H6.15008C7.63341 20.1167 8.83342 18.9167 8.83342 17.4333V16.3667C8.83342 14.8833 7.63341 13.6833 6.15008 13.6833H4.11675C3.65008 13.6833 3.28341 14.05 3.28341 14.5167C3.28341 14.9833 3.65008 15.35 4.11675 15.35H6.15008C6.70008 15.35 7.16675 15.8 7.16675 16.3667V17.4333C7.16675 17.9833 6.71675 18.45 6.15008 18.45H2.35008V16.0333C2.35008 15.05 2.70008 14.1167 3.35008 13.3667H3.33341ZM8.28341 25.0333C8.28341 25.5 7.91675 25.8667 7.45008 25.8667H4.58341C4.11675 25.8667 3.75008 25.5 3.75008 25.0333V23.5H8.28341V25.0333ZM13.6001 21.8333V19.8167H22.4001V21.8333H13.6001ZM32.2501 25.0333C32.2501 25.5 31.8834 25.8667 31.4167 25.8667H28.5501C28.0834 25.8667 27.7167 25.5 27.7167 25.0333V23.5H32.2501V25.0333Z" fill="#626C83"/>
<path d="M7.98348 10.6H28.0168C28.4835 10.6 28.8501 10.2333 28.8501 9.76667C28.8501 9.3 28.4835 8.93333 28.0168 8.93333H7.98348C7.51681 8.93333 7.15015 9.3 7.15015 9.76667C7.15015 10.2333 7.51681 10.6 7.98348 10.6ZM24.8168 13.6667H11.1835C10.7168 13.6667 10.3501 14.0333 10.3501 14.5C10.3501 14.9667 10.7168 15.3333 11.1835 15.3333H24.8168C25.2835 15.3333 25.6501 14.9667 25.6501 14.5C25.6501 14.0333 25.2835 13.6667 24.8168 13.6667Z" fill="#626C83"/>
</svg>
