<svg width="32" height="32" viewBox="0 0 32 32" fill="none" xmlns="http://www.w3.org/2000/svg">
<path d="M11 24.75V26.4289C11 27.755 10.4732 29.0268 9.53553 29.9645L8.5 31H23.5L22.4645 29.9645C21.5268 29.0268 21 27.755 21 26.4289V24.75M31 4.75V21C31 23.0711 29.3211 24.75 27.25 24.75H4.75C2.67893 24.75 1 23.0711 1 21V4.75M31 4.75C31 2.67893 29.3211 1 27.25 1H4.75C2.67893 1 1 2.67893 1 4.75M31 4.75V16C31 18.0711 29.3211 19.75 27.25 19.75H4.75C2.67893 19.75 1 18.0711 1 16V4.75" stroke="#626C83" stroke-width="2" stroke-linecap="round" stroke-linejoin="round"/>
</svg>
