<svg width="16" height="20" viewBox="0 0 16 20" fill="none" xmlns="http://www.w3.org/2000/svg">
<path d="M10.2837 7.5L9.99519 15M6.00481 15L5.71635 7.5M14.023 4.82547C14.308 4.86851 14.592 4.91456 14.875 4.96358M14.023 4.82547L13.1332 16.3938C13.058 17.3707 12.2434 18.125 11.2637 18.125H4.73631C3.75655 18.125 2.94198 17.3707 2.86683 16.3938L1.97696 4.82547M14.023 4.82547C13.0677 4.6812 12.1013 4.57071 11.125 4.49527M1.125 4.96358C1.40798 4.91456 1.69198 4.86851 1.97696 4.82547M1.97696 4.82547C2.93231 4.6812 3.89874 4.57071 4.875 4.49527M11.125 4.49527V3.73182C11.125 2.74902 10.3661 1.92853 9.38382 1.8971C8.92435 1.8824 8.46304 1.875 8 1.875C7.53696 1.875 7.07565 1.8824 6.61618 1.8971C5.63388 1.92853 4.875 2.74902 4.875 3.73182V4.49527M11.125 4.49527C10.0938 4.41558 9.05164 4.375 8 4.375C6.94836 4.375 5.9062 4.41558 4.875 4.49527" stroke="#40444C" stroke-width="2" stroke-linecap="round" stroke-linejoin="round"/>
</svg>
