<svg width="40" height="40" viewBox="0 0 40 40" fill="none" xmlns="http://www.w3.org/2000/svg">
<g clip-path="url(#clip0_30_3627)">
<path d="M38 38.5167H24.0814C24.1468 38.2523 24.1616 37.9772 24.1242 37.7061C24.0773 37.3659 23.9495 37.0419 23.7516 36.7612C23.5537 36.4805 23.2914 36.2512 22.9868 36.0927C22.6821 35.9342 22.3439 35.851 22.0004 35.85H22H20.15V33.4833H27.3333C28.2572 33.4833 29.1432 33.1163 29.7964 32.4631C30.4497 31.8098 30.8167 30.9238 30.8167 30V12.6667C30.8167 11.7428 30.4497 10.8568 29.7964 10.2036C29.1432 9.55033 28.2572 9.18333 27.3333 9.18333H20.15V2C20.15 1.86297 20.2044 1.73156 20.3013 1.63466C20.3982 1.53777 20.5296 1.48333 20.6667 1.48333H38C38.137 1.48333 38.2684 1.53777 38.3653 1.63466L38.4714 1.5286L38.3653 1.63466C38.4622 1.73156 38.5167 1.86297 38.5167 2V38C38.5167 38.137 38.4622 38.2684 38.3653 38.3653C38.2684 38.4622 38.137 38.5167 38 38.5167ZM8.30133 38.3653L8.19526 38.4714L8.30133 38.3653C8.20443 38.2684 8.15 38.137 8.15 38C8.15 37.863 8.20443 37.7316 8.30133 37.6347C8.39822 37.5378 8.52964 37.4833 8.66667 37.4833H22C22.137 37.4833 22.2684 37.5378 22.3653 37.6347C22.4622 37.7316 22.5167 37.863 22.5167 38C22.5167 38.137 22.4622 38.2684 22.3653 38.3653C22.2684 38.4622 22.137 38.5167 22 38.5167H20.6667H8.66667C8.52964 38.5167 8.39822 38.4622 8.30133 38.3653ZM38 -0.15H20.6667C20.0965 -0.15 19.5496 0.0765171 19.1464 0.47972C18.7432 0.882924 18.5167 1.42978 18.5167 2V9.18333H3.33333C2.4095 9.18333 1.5235 9.55033 0.870245 10.2036C0.216993 10.8568 -0.15 11.7428 -0.15 12.6667V30C-0.15 30.9238 0.216993 31.8098 0.870245 32.4631C1.5235 33.1163 2.4095 33.4833 3.33333 33.4833H10.5167V35.85H8.66667C8.09645 35.85 7.54959 36.0765 7.14639 36.4797C6.74318 36.8829 6.51667 37.4298 6.51667 38C6.51667 38.5702 6.74318 39.1171 7.14639 39.5203C7.54959 39.9235 8.09645 40.15 8.66667 40.15H38C38.5702 40.15 39.1171 39.9235 39.5203 39.5203C39.9235 39.1171 40.15 38.5702 40.15 38V2C40.15 1.42978 39.9235 0.882924 39.5203 0.47972C39.1171 0.0765171 38.5702 -0.15 38 -0.15ZM3.33333 10.8167H27.3333C27.824 10.8167 28.2945 11.0116 28.6415 11.3585C28.9884 11.7055 29.1833 12.176 29.1833 12.6667V28.5167H1.48333V12.6667C1.48333 12.176 1.67824 11.7055 2.02519 11.3585C2.37213 11.0116 2.84268 10.8167 3.33333 10.8167ZM29.1772 30.15C29.1418 30.5857 28.9529 30.9967 28.6415 31.3081C28.2945 31.6551 27.824 31.85 27.3333 31.85H3.33333C2.84268 31.85 2.37213 31.6551 2.02519 31.3081C1.71377 30.9967 1.52485 30.5857 1.48942 30.15H29.1772ZM12.15 33.4833H18.5167V35.85H12.15V33.4833Z" fill="#626C83" stroke="#626C83" stroke-width="0.3"/>
<path d="M36.0002 3.18333H22.6668C22.2734 3.18333 21.8961 3.33961 21.618 3.61779C21.3398 3.89597 21.1835 4.27326 21.1835 4.66667V6C21.1835 6.3934 21.3398 6.77069 21.618 7.04887C21.8961 7.32705 22.2734 7.48333 22.6668 7.48333H36.0002C36.3936 7.48333 36.7709 7.32705 37.049 7.04887C37.3272 6.77069 37.4835 6.3934 37.4835 6V4.66667C37.4835 4.27326 37.3272 3.89597 37.049 3.61779C36.7709 3.33961 36.3936 3.18333 36.0002 3.18333ZM25.4227 37.2441L25.5288 37.1381L25.4227 37.2441C25.5758 37.3973 25.7836 37.4833 26.0002 37.4833C26.2168 37.4833 26.4245 37.3973 26.5776 37.2441L26.4716 37.1381L26.5776 37.2441C26.7308 37.091 26.8168 36.8833 26.8168 36.6667V35.3333C26.8168 35.1167 26.7308 34.909 26.5776 34.7559C26.4245 34.6027 26.2168 34.5167 26.0002 34.5167C25.7836 34.5167 25.5758 34.6027 25.4227 34.7559C25.2695 34.909 25.1835 35.1167 25.1835 35.3333V36.6667C25.1835 36.8833 25.2695 37.091 25.4227 37.2441ZM28.0894 37.2441L28.1954 37.1381L28.0894 37.2441C28.2425 37.3973 28.4502 37.4833 28.6668 37.4833C28.8834 37.4833 29.0911 37.3973 29.2443 37.2441L29.1382 37.1381L29.2443 37.2441C29.3975 37.091 29.4835 36.8833 29.4835 36.6667V35.3333C29.4835 35.1167 29.3975 34.909 29.2443 34.7559C29.0911 34.6027 28.8834 34.5167 28.6668 34.5167C28.4502 34.5167 28.2425 34.6027 28.0894 34.7559C27.9362 34.909 27.8502 35.1167 27.8502 35.3333V36.6667C27.8502 36.8833 27.9362 37.091 28.0894 37.2441ZM30.756 37.2441L30.8621 37.1381L30.756 37.2441C30.9092 37.3973 31.1169 37.4833 31.3335 37.4833C31.5501 37.4833 31.7578 37.3973 31.911 37.2441C32.0641 37.091 32.1502 36.8833 32.1502 36.6667V35.3333C32.1502 35.1167 32.0641 34.909 31.911 34.7559C31.7578 34.6027 31.5501 34.5167 31.3335 34.5167C31.1169 34.5167 30.9092 34.6027 30.756 34.7559C30.6029 34.909 30.5168 35.1167 30.5168 35.3333V36.6667C30.5168 36.8833 30.6029 37.091 30.756 37.2441ZM33.4227 37.2441L33.5288 37.1381L33.4227 37.2441C33.5758 37.3973 33.7836 37.4833 34.0002 37.4833C34.2168 37.4833 34.4245 37.3973 34.5776 37.2441C34.7308 37.091 34.8168 36.8833 34.8168 36.6667V35.3333C34.8168 35.1167 34.7308 34.909 34.5776 34.7559C34.4245 34.6027 34.2168 34.5167 34.0002 34.5167C33.7836 34.5167 33.5758 34.6027 33.4227 34.7559C33.2695 34.909 33.1835 35.1167 33.1835 35.3333V36.6667C33.1835 36.8833 33.2695 37.091 33.4227 37.2441ZM37.2443 37.2441L37.1382 37.1381L37.2443 37.2441C37.3975 37.091 37.4835 36.8833 37.4835 36.6667V35.3333C37.4835 35.1167 37.3975 34.909 37.2443 34.7559C37.0911 34.6027 36.8834 34.5167 36.6668 34.5167C36.4502 34.5167 36.2425 34.6027 36.0894 34.7559C35.9362 34.909 35.8502 35.1167 35.8502 35.3333V36.6667C35.8502 36.8833 35.9362 37.091 36.0894 37.2441C36.2425 37.3973 36.4502 37.4833 36.6668 37.4833C36.8834 37.4833 37.0911 37.3973 37.2443 37.2441ZM22.8168 5.85V4.81667H35.8502V5.85H22.8168ZM34.6668 13.4833C35.237 13.4833 35.7839 13.2568 36.1871 12.8536C36.5903 12.4504 36.8168 11.9035 36.8168 11.3333C36.8168 10.7631 36.5903 10.2163 36.1871 9.81305C35.7839 9.40985 35.237 9.18333 34.6668 9.18333C34.0966 9.18333 33.5498 9.40985 33.1466 9.81305C32.7433 10.2163 32.5168 10.7631 32.5168 11.3333C32.5168 11.9035 32.7433 12.4504 33.1466 12.8536C33.5498 13.2568 34.0966 13.4833 34.6668 13.4833ZM34.6668 10.8167C34.8039 10.8167 34.9353 10.8711 35.0322 10.968C35.1291 11.0649 35.1835 11.1963 35.1835 11.3333C35.1835 11.4704 35.1291 11.6018 35.0322 11.6987C34.9353 11.7956 34.8039 11.85 34.6668 11.85C34.5298 11.85 34.3984 11.7956 34.3015 11.6987C34.2046 11.6018 34.1502 11.4704 34.1502 11.3333C34.1502 11.1963 34.2046 11.0649 34.3015 10.968C34.3984 10.8711 34.5298 10.8167 34.6668 10.8167ZM36.8168 16.6667C36.8168 16.0964 36.5903 15.5496 36.1871 15.1464C35.7839 14.7432 35.237 14.5167 34.6668 14.5167C34.0966 14.5167 33.5498 14.7432 33.1466 15.1464C32.7433 15.5496 32.5168 16.0964 32.5168 16.6667C32.5168 17.2369 32.7433 17.7837 33.1466 18.1869C33.5498 18.5901 34.0966 18.8167 34.6668 18.8167C35.237 18.8167 35.7839 18.5901 36.1871 18.1869C36.5903 17.7837 36.8168 17.2369 36.8168 16.6667ZM34.6668 17.1833C34.5298 17.1833 34.3984 17.1289 34.3015 17.032C34.2046 16.9351 34.1502 16.8037 34.1502 16.6667C34.1502 16.5296 34.2046 16.3982 34.3015 16.3013C34.3984 16.2044 34.5298 16.15 34.6668 16.15C34.8039 16.15 34.9353 16.2044 35.0322 16.3013C35.1291 16.3982 35.1835 16.5296 35.1835 16.6667C35.1835 16.8037 35.1291 16.9351 35.0322 17.032C34.9353 17.1289 34.8039 17.1833 34.6668 17.1833Z" fill="#626C83" stroke="#626C83" stroke-width="0.3"/>
</g>
<defs>
<clipPath id="clip0_30_3627">
<rect width="40" height="40" fill="white"/>
</clipPath>
</defs>
</svg>
