<svg width="22" height="20" viewBox="0 0 22 20" fill="none" xmlns="http://www.w3.org/2000/svg">
<path d="M8 1.75H5.91179C4.92403 1.75 4.05178 2.39423 3.76129 3.33831L1.3495 11.1766C1.28354 11.391 1.25 11.614 1.25 11.8383V16C1.25 17.2426 2.25736 18.25 3.5 18.25H18.5C19.7426 18.25 20.75 17.2426 20.75 16V11.8383C20.75 11.614 20.7165 11.391 20.6505 11.1766L18.2387 3.33831C17.9482 2.39423 17.076 1.75 16.0882 1.75H14M1.25 11.5H5.10942C5.96166 11.5 6.74075 11.9815 7.12188 12.7438L7.37812 13.2562C7.75925 14.0185 8.53834 14.5 9.39058 14.5H12.6094C13.4617 14.5 14.2408 14.0185 14.6219 13.2562L14.8781 12.7438C15.2592 11.9815 16.0383 11.5 16.8906 11.5H20.75M11 1V9.25M11 9.25L8 6.25M11 9.25L14 6.25" stroke="#40444C" stroke-width="2" stroke-linecap="round" stroke-linejoin="round"/>
</svg>
