<svg width="20" height="16" viewBox="0 0 20 16" fill="none" xmlns="http://www.w3.org/2000/svg">
<path d="M18.125 3.625V12.375C18.125 13.4105 17.2855 14.25 16.25 14.25H3.75C2.71447 14.25 1.875 13.4105 1.875 12.375V3.625M18.125 3.625C18.125 2.58947 17.2855 1.75 16.25 1.75H3.75C2.71447 1.75 1.875 2.58947 1.875 3.625M18.125 3.625V3.82726C18.125 4.47837 17.7872 5.08287 17.2327 5.42412L10.9827 9.27027C10.38 9.64113 9.61996 9.64113 9.01732 9.27027L2.76732 5.42412C2.21279 5.08287 1.875 4.47837 1.875 3.82726V3.625" stroke="#40444C" stroke-width="2" stroke-linecap="round" stroke-linejoin="round"/>
</svg>
