<svg width="24" height="18" viewBox="0 0 24 18" fill="none" xmlns="http://www.w3.org/2000/svg">
<path d="M2.03526 9.3224C1.96618 9.11513 1.96611 8.89073 2.03507 8.68343C3.42343 4.50972 7.3605 1.5 12.0005 1.5C16.6384 1.5 20.5739 4.50692 21.964 8.6776C22.0331 8.88487 22.0332 9.10927 21.9642 9.31658C20.5759 13.4903 16.6388 16.5 11.9988 16.5C7.3609 16.5 3.42535 13.4931 2.03526 9.3224Z" stroke="#40444C" stroke-width="2" stroke-linecap="round" stroke-linejoin="round"/>
<path d="M14.9997 9C14.9997 10.6569 13.6566 12 11.9997 12C10.3429 12 8.99971 10.6569 8.99971 9C8.99971 7.34315 10.3429 6 11.9997 6C13.6566 6 14.9997 7.34315 14.9997 9Z" stroke="#40444C" stroke-width="2" stroke-linecap="round" stroke-linejoin="round"/>
</svg>
