<svg width="20" height="20" viewBox="0 0 20 20" fill="none" xmlns="http://www.w3.org/2000/svg">
<path d="M5 11.25L5 3.125M5 11.25C5.69036 11.25 6.25 11.8096 6.25 12.5C6.25 13.1904 5.69036 13.75 5 13.75M5 11.25C4.30964 11.25 3.75 11.8096 3.75 12.5C3.75 13.1904 4.30964 13.75 5 13.75M5 16.875L5 13.75M15 11.25V3.125M15 11.25C15.6904 11.25 16.25 11.8096 16.25 12.5C16.25 13.1904 15.6904 13.75 15 13.75M15 11.25C14.3096 11.25 13.75 11.8096 13.75 12.5C13.75 13.1904 14.3096 13.75 15 13.75M15 16.875L15 13.75M10 6.25V3.125M10 6.25C10.6904 6.25 11.25 6.80964 11.25 7.5C11.25 8.19036 10.6904 8.75 10 8.75M10 6.25C9.30964 6.25 8.75 6.80964 8.75 7.5C8.75 8.19036 9.30964 8.75 10 8.75M10 16.875V8.75" stroke="#40444C" stroke-width="1.5" stroke-linecap="round" stroke-linejoin="round"/>
</svg>
