<svg width="10" height="11" viewBox="0 0 10 11" fill="none" xmlns="http://www.w3.org/2000/svg">
<path fill-rule="evenodd" clip-rule="evenodd" d="M5.48167 0.642894C5.42079 0.561245 5.32931 0.507875 5.22827 0.495051C5.12723 0.482228 5.02532 0.511054 4.94597 0.574903C4.01088 1.32731 3.3587 2.41888 3.17661 3.66319C2.84832 3.42521 2.56 3.13526 2.3238 2.8054C2.25882 2.71466 2.1568 2.65758 2.04547 2.64967C1.93415 2.64176 1.82508 2.68386 1.74793 2.7645C0.975235 3.57221 0.5 4.66841 0.5 5.87483C0.5 8.36011 2.51472 10.3748 5 10.3748C7.48528 10.3748 9.5 8.36011 9.5 5.87483C9.5 4.04438 8.40714 2.46999 6.83989 1.76703C6.28529 1.49628 5.82733 1.10642 5.48167 0.642894ZM6.875 6.62502C6.875 7.66056 6.03553 8.50002 5 8.50002C3.96447 8.50002 3.125 7.66056 3.125 6.62502C3.125 6.42035 3.15779 6.22334 3.21841 6.03896C3.53265 6.27127 3.89385 6.44368 4.28515 6.53933C4.3931 5.83894 4.74328 5.21848 5.24745 4.7662C6.16603 4.88731 6.875 5.67337 6.875 6.62502Z" fill="#EB5757"/>
</svg>
