<svg width="40" height="36" viewBox="0 0 40 36" fill="none" xmlns="http://www.w3.org/2000/svg">
<mask id="path-1-outside-1_12_5107" maskUnits="userSpaceOnUse" x="0.245605" y="-0.625" width="39" height="36" fill="black">
<rect fill="white" x="0.245605" y="-0.625" width="39" height="36"/>
<path d="M38.7001 15.3313C38.5479 14.3939 38.098 13.5304 37.417 12.8686C36.7361 12.2067 35.8601 11.7817 34.9188 11.6562C34.7381 11.6386 34.5566 11.6302 34.3751 11.6313V9.75C34.3721 7.26451 33.3834 4.88167 31.6259 3.12416C29.8684 1.36665 27.4856 0.377977 25.0001 0.375H15.0001C12.5146 0.377977 10.1317 1.36665 8.37424 3.12416C6.61673 4.88167 5.62805 7.26451 5.62508 9.75V11.6313C5.44352 11.6302 5.26203 11.6386 5.08133 11.6562C4.14002 11.7817 3.26409 12.2067 2.58311 12.8686C1.90213 13.5304 1.45226 14.3939 1.30008 15.3313C1.13301 16.3764 1.35326 17.4465 1.91947 18.3407C2.48568 19.2349 3.35889 19.8916 4.37508 20.1875V28.5C4.37656 28.9968 4.57458 29.4729 4.92589 29.8242C5.2772 30.1755 5.75325 30.3735 6.25008 30.375V34.125C6.25008 34.2908 6.31593 34.4497 6.43314 34.5669C6.55035 34.6842 6.70932 34.75 6.87508 34.75H8.75008C8.88611 34.7496 9.01831 34.7048 9.1266 34.6225C9.23488 34.5402 9.31335 34.4247 9.35008 34.2938L10.4688 30.375H29.5313L30.6501 34.2938C30.6868 34.4247 30.7653 34.5402 30.8736 34.6225C30.9818 34.7048 31.114 34.7496 31.2501 34.75H33.1251C33.2908 34.75 33.4498 34.6842 33.567 34.5669C33.6842 34.4497 33.7501 34.2908 33.7501 34.125V30.375C34.2469 30.3735 34.723 30.1755 35.0743 29.8242C35.4256 29.4729 35.6236 28.9968 35.6251 28.5V20.1875C36.6413 19.8916 37.5145 19.2349 38.0807 18.3407C38.6469 17.4465 38.8671 16.3764 38.7001 15.3313ZM6.87508 9.75C6.87706 7.59573 7.73372 5.53025 9.25703 4.00695C10.7803 2.48365 12.8458 1.62699 15.0001 1.625H25.0001C27.1544 1.62699 29.2198 2.48365 30.7431 4.00695C32.2664 5.53025 33.1231 7.59573 33.1251 9.75V11.8125C32.2218 12.0793 31.4291 12.6314 30.8658 13.3863C30.3025 14.1411 29.9988 15.0581 30.0001 16V17.9875C29.7997 17.9147 29.5883 17.8767 29.3751 17.875H10.6251C10.4119 17.8767 10.2005 17.9147 10.0001 17.9875V16C10.0014 15.0581 9.69765 14.1411 9.13433 13.3863C8.57101 12.6314 7.77838 12.0793 6.87508 11.8125V9.75ZM30.0001 19.75V22.875H10.0001V19.75C10.0001 19.5842 10.0659 19.4253 10.1831 19.3081C10.3003 19.1908 10.4593 19.125 10.6251 19.125H29.3751C29.5408 19.125 29.6998 19.1908 29.817 19.3081C29.9342 19.4253 30.0001 19.5842 30.0001 19.75ZM8.28133 33.5H7.50008V30.375H9.16883L8.28133 33.5ZM32.5001 33.5H31.7188L30.8313 30.375H32.5001V33.5ZM34.8938 19.075C34.7486 19.1011 34.6171 19.1773 34.5223 19.2903C34.4275 19.4034 34.3754 19.5462 34.3751 19.6938V28.5C34.3751 28.6658 34.3092 28.8247 34.192 28.9419C34.0748 29.0592 33.9158 29.125 33.7501 29.125H6.25008C6.08432 29.125 5.92535 29.0592 5.80814 28.9419C5.69092 28.8247 5.62508 28.6658 5.62508 28.5V19.6938C5.62476 19.5462 5.57266 19.4034 5.47786 19.2903C5.38305 19.1773 5.25157 19.1011 5.10633 19.075C4.3674 18.9512 3.69767 18.5657 3.21945 17.9889C2.74123 17.4121 2.48643 16.6826 2.5016 15.9335C2.51676 15.1844 2.80087 14.4658 3.30204 13.9089C3.80321 13.3519 4.48799 12.9938 5.23133 12.9C5.36182 12.8823 5.4934 12.874 5.62508 12.875H5.63133C6.39252 12.8736 7.12726 13.1542 7.69383 13.6625C8.02502 13.9554 8.29039 14.3152 8.47245 14.7181C8.65451 15.121 8.74913 15.5579 8.75008 16V23.5C8.75008 23.6658 8.81593 23.8247 8.93314 23.9419C9.05035 24.0592 9.20932 24.125 9.37508 24.125H30.6251C30.7908 24.125 30.9498 24.0592 31.067 23.9419C31.1842 23.8247 31.2501 23.6658 31.2501 23.5V16C31.251 15.5579 31.3456 15.121 31.5277 14.7181C31.7098 14.3152 31.9751 13.9554 32.3063 13.6625C32.6374 13.3652 33.029 13.1431 33.454 13.0115C33.8791 12.8798 34.3277 12.8418 34.7688 12.9C35.4395 12.9868 36.0641 13.2881 36.5495 13.7589C37.035 14.2297 37.3552 14.8448 37.4626 15.5125V15.5187C37.5917 16.3307 37.3939 17.1608 36.9125 17.8273C36.4311 18.4937 35.7052 18.9424 34.8938 19.075Z"/>
</mask>
<path d="M38.7001 15.3313C38.5479 14.3939 38.098 13.5304 37.417 12.8686C36.7361 12.2067 35.8601 11.7817 34.9188 11.6562C34.7381 11.6386 34.5566 11.6302 34.3751 11.6313V9.75C34.3721 7.26451 33.3834 4.88167 31.6259 3.12416C29.8684 1.36665 27.4856 0.377977 25.0001 0.375H15.0001C12.5146 0.377977 10.1317 1.36665 8.37424 3.12416C6.61673 4.88167 5.62805 7.26451 5.62508 9.75V11.6313C5.44352 11.6302 5.26203 11.6386 5.08133 11.6562C4.14002 11.7817 3.26409 12.2067 2.58311 12.8686C1.90213 13.5304 1.45226 14.3939 1.30008 15.3313C1.13301 16.3764 1.35326 17.4465 1.91947 18.3407C2.48568 19.2349 3.35889 19.8916 4.37508 20.1875V28.5C4.37656 28.9968 4.57458 29.4729 4.92589 29.8242C5.2772 30.1755 5.75325 30.3735 6.25008 30.375V34.125C6.25008 34.2908 6.31593 34.4497 6.43314 34.5669C6.55035 34.6842 6.70932 34.75 6.87508 34.75H8.75008C8.88611 34.7496 9.01831 34.7048 9.1266 34.6225C9.23488 34.5402 9.31335 34.4247 9.35008 34.2938L10.4688 30.375H29.5313L30.6501 34.2938C30.6868 34.4247 30.7653 34.5402 30.8736 34.6225C30.9818 34.7048 31.114 34.7496 31.2501 34.75H33.1251C33.2908 34.75 33.4498 34.6842 33.567 34.5669C33.6842 34.4497 33.7501 34.2908 33.7501 34.125V30.375C34.2469 30.3735 34.723 30.1755 35.0743 29.8242C35.4256 29.4729 35.6236 28.9968 35.6251 28.5V20.1875C36.6413 19.8916 37.5145 19.2349 38.0807 18.3407C38.6469 17.4465 38.8671 16.3764 38.7001 15.3313ZM6.87508 9.75C6.87706 7.59573 7.73372 5.53025 9.25703 4.00695C10.7803 2.48365 12.8458 1.62699 15.0001 1.625H25.0001C27.1544 1.62699 29.2198 2.48365 30.7431 4.00695C32.2664 5.53025 33.1231 7.59573 33.1251 9.75V11.8125C32.2218 12.0793 31.4291 12.6314 30.8658 13.3863C30.3025 14.1411 29.9988 15.0581 30.0001 16V17.9875C29.7997 17.9147 29.5883 17.8767 29.3751 17.875H10.6251C10.4119 17.8767 10.2005 17.9147 10.0001 17.9875V16C10.0014 15.0581 9.69765 14.1411 9.13433 13.3863C8.57101 12.6314 7.77838 12.0793 6.87508 11.8125V9.75ZM30.0001 19.75V22.875H10.0001V19.75C10.0001 19.5842 10.0659 19.4253 10.1831 19.3081C10.3003 19.1908 10.4593 19.125 10.6251 19.125H29.3751C29.5408 19.125 29.6998 19.1908 29.817 19.3081C29.9342 19.4253 30.0001 19.5842 30.0001 19.75ZM8.28133 33.5H7.50008V30.375H9.16883L8.28133 33.5ZM32.5001 33.5H31.7188L30.8313 30.375H32.5001V33.5ZM34.8938 19.075C34.7486 19.1011 34.6171 19.1773 34.5223 19.2903C34.4275 19.4034 34.3754 19.5462 34.3751 19.6938V28.5C34.3751 28.6658 34.3092 28.8247 34.192 28.9419C34.0748 29.0592 33.9158 29.125 33.7501 29.125H6.25008C6.08432 29.125 5.92535 29.0592 5.80814 28.9419C5.69092 28.8247 5.62508 28.6658 5.62508 28.5V19.6938C5.62476 19.5462 5.57266 19.4034 5.47786 19.2903C5.38305 19.1773 5.25157 19.1011 5.10633 19.075C4.3674 18.9512 3.69767 18.5657 3.21945 17.9889C2.74123 17.4121 2.48643 16.6826 2.5016 15.9335C2.51676 15.1844 2.80087 14.4658 3.30204 13.9089C3.80321 13.3519 4.48799 12.9938 5.23133 12.9C5.36182 12.8823 5.4934 12.874 5.62508 12.875H5.63133C6.39252 12.8736 7.12726 13.1542 7.69383 13.6625C8.02502 13.9554 8.29039 14.3152 8.47245 14.7181C8.65451 15.121 8.74913 15.5579 8.75008 16V23.5C8.75008 23.6658 8.81593 23.8247 8.93314 23.9419C9.05035 24.0592 9.20932 24.125 9.37508 24.125H30.6251C30.7908 24.125 30.9498 24.0592 31.067 23.9419C31.1842 23.8247 31.2501 23.6658 31.2501 23.5V16C31.251 15.5579 31.3456 15.121 31.5277 14.7181C31.7098 14.3152 31.9751 13.9554 32.3063 13.6625C32.6374 13.3652 33.029 13.1431 33.454 13.0115C33.8791 12.8798 34.3277 12.8418 34.7688 12.9C35.4395 12.9868 36.0641 13.2881 36.5495 13.7589C37.035 14.2297 37.3552 14.8448 37.4626 15.5125V15.5187C37.5917 16.3307 37.3939 17.1608 36.9125 17.8273C36.4311 18.4937 35.7052 18.9424 34.8938 19.075Z" fill="#626C83"/>
<path d="M38.7001 15.3313C38.5479 14.3939 38.098 13.5304 37.417 12.8686C36.7361 12.2067 35.8601 11.7817 34.9188 11.6562C34.7381 11.6386 34.5566 11.6302 34.3751 11.6313V9.75C34.3721 7.26451 33.3834 4.88167 31.6259 3.12416C29.8684 1.36665 27.4856 0.377977 25.0001 0.375H15.0001C12.5146 0.377977 10.1317 1.36665 8.37424 3.12416C6.61673 4.88167 5.62805 7.26451 5.62508 9.75V11.6313C5.44352 11.6302 5.26203 11.6386 5.08133 11.6562C4.14002 11.7817 3.26409 12.2067 2.58311 12.8686C1.90213 13.5304 1.45226 14.3939 1.30008 15.3313C1.13301 16.3764 1.35326 17.4465 1.91947 18.3407C2.48568 19.2349 3.35889 19.8916 4.37508 20.1875V28.5C4.37656 28.9968 4.57458 29.4729 4.92589 29.8242C5.2772 30.1755 5.75325 30.3735 6.25008 30.375V34.125C6.25008 34.2908 6.31593 34.4497 6.43314 34.5669C6.55035 34.6842 6.70932 34.75 6.87508 34.75H8.75008C8.88611 34.7496 9.01831 34.7048 9.1266 34.6225C9.23488 34.5402 9.31335 34.4247 9.35008 34.2938L10.4688 30.375H29.5313L30.6501 34.2938C30.6868 34.4247 30.7653 34.5402 30.8736 34.6225C30.9818 34.7048 31.114 34.7496 31.2501 34.75H33.1251C33.2908 34.75 33.4498 34.6842 33.567 34.5669C33.6842 34.4497 33.7501 34.2908 33.7501 34.125V30.375C34.2469 30.3735 34.723 30.1755 35.0743 29.8242C35.4256 29.4729 35.6236 28.9968 35.6251 28.5V20.1875C36.6413 19.8916 37.5145 19.2349 38.0807 18.3407C38.6469 17.4465 38.8671 16.3764 38.7001 15.3313ZM6.87508 9.75C6.87706 7.59573 7.73372 5.53025 9.25703 4.00695C10.7803 2.48365 12.8458 1.62699 15.0001 1.625H25.0001C27.1544 1.62699 29.2198 2.48365 30.7431 4.00695C32.2664 5.53025 33.1231 7.59573 33.1251 9.75V11.8125C32.2218 12.0793 31.4291 12.6314 30.8658 13.3863C30.3025 14.1411 29.9988 15.0581 30.0001 16V17.9875C29.7997 17.9147 29.5883 17.8767 29.3751 17.875H10.6251C10.4119 17.8767 10.2005 17.9147 10.0001 17.9875V16C10.0014 15.0581 9.69765 14.1411 9.13433 13.3863C8.57101 12.6314 7.77838 12.0793 6.87508 11.8125V9.75ZM30.0001 19.75V22.875H10.0001V19.75C10.0001 19.5842 10.0659 19.4253 10.1831 19.3081C10.3003 19.1908 10.4593 19.125 10.6251 19.125H29.3751C29.5408 19.125 29.6998 19.1908 29.817 19.3081C29.9342 19.4253 30.0001 19.5842 30.0001 19.75ZM8.28133 33.5H7.50008V30.375H9.16883L8.28133 33.5ZM32.5001 33.5H31.7188L30.8313 30.375H32.5001V33.5ZM34.8938 19.075C34.7486 19.1011 34.6171 19.1773 34.5223 19.2903C34.4275 19.4034 34.3754 19.5462 34.3751 19.6938V28.5C34.3751 28.6658 34.3092 28.8247 34.192 28.9419C34.0748 29.0592 33.9158 29.125 33.7501 29.125H6.25008C6.08432 29.125 5.92535 29.0592 5.80814 28.9419C5.69092 28.8247 5.62508 28.6658 5.62508 28.5V19.6938C5.62476 19.5462 5.57266 19.4034 5.47786 19.2903C5.38305 19.1773 5.25157 19.1011 5.10633 19.075C4.3674 18.9512 3.69767 18.5657 3.21945 17.9889C2.74123 17.4121 2.48643 16.6826 2.5016 15.9335C2.51676 15.1844 2.80087 14.4658 3.30204 13.9089C3.80321 13.3519 4.48799 12.9938 5.23133 12.9C5.36182 12.8823 5.4934 12.874 5.62508 12.875H5.63133C6.39252 12.8736 7.12726 13.1542 7.69383 13.6625C8.02502 13.9554 8.29039 14.3152 8.47245 14.7181C8.65451 15.121 8.74913 15.5579 8.75008 16V23.5C8.75008 23.6658 8.81593 23.8247 8.93314 23.9419C9.05035 24.0592 9.20932 24.125 9.37508 24.125H30.6251C30.7908 24.125 30.9498 24.0592 31.067 23.9419C31.1842 23.8247 31.2501 23.6658 31.2501 23.5V16C31.251 15.5579 31.3456 15.121 31.5277 14.7181C31.7098 14.3152 31.9751 13.9554 32.3063 13.6625C32.6374 13.3652 33.029 13.1431 33.454 13.0115C33.8791 12.8798 34.3277 12.8418 34.7688 12.9C35.4395 12.9868 36.0641 13.2881 36.5495 13.7589C37.035 14.2297 37.3552 14.8448 37.4626 15.5125V15.5187C37.5917 16.3307 37.3939 17.1608 36.9125 17.8273C36.4311 18.4937 35.7052 18.9424 34.8938 19.075Z" stroke="#626C83" stroke-width="0.6" mask="url(#path-1-outside-1_12_5107)"/>
</svg>
