<svg width="20" height="20" viewBox="0 0 20 20" fill="none" xmlns="http://www.w3.org/2000/svg">
<path fill-rule="evenodd" clip-rule="evenodd" d="M9.99996 3.33334C6.31806 3.33334 3.33329 6.31811 3.33329 10C3.33329 13.6819 6.31806 16.6667 9.99996 16.6667C13.6819 16.6667 16.6666 13.6819 16.6666 10C16.6666 6.31811 13.6819 3.33334 9.99996 3.33334ZM1.66663 10C1.66663 5.39763 5.39759 1.66667 9.99996 1.66667C14.6023 1.66667 18.3333 5.39763 18.3333 10C18.3333 14.6024 14.6023 18.3333 9.99996 18.3333C5.39759 18.3333 1.66663 14.6024 1.66663 10ZM9.99996 6.66667C10.4602 6.66667 10.8333 7.03977 10.8333 7.50001V10.625C10.8333 11.0852 10.4602 11.4583 9.99996 11.4583C9.53972 11.4583 9.16663 11.0852 9.16663 10.625V7.50001C9.16663 7.03977 9.53972 6.66667 9.99996 6.66667ZM9.16663 13.125C9.16663 12.6648 9.53972 12.2917 9.99996 12.2917H10.0062C10.4664 12.2917 10.8395 12.6648 10.8395 13.125V13.1313C10.8395 13.5915 10.4664 13.9646 10.0062 13.9646H9.99996C9.53972 13.9646 9.16663 13.5915 9.16663 13.1313V13.125Z" fill="#40444C"/>
</svg>
