<svg width="40" height="38" viewBox="0 0 40 38" fill="none" xmlns="http://www.w3.org/2000/svg">
<path d="M13.7429 17.75C16.5 17.75 18.7429 15.9276 18.7429 13.6875C18.7429 13.5217 18.6771 13.3628 18.5599 13.2456C18.4427 13.1283 18.2837 13.0625 18.1179 13.0625C17.9522 13.0625 17.7932 13.1283 17.676 13.2456C17.5588 13.3628 17.4929 13.5217 17.4929 13.6875C17.4929 15.0786 16.1391 16.2363 14.3679 16.4602V14.4766C14.434 14.4436 14.4975 14.4055 14.5576 14.3626L15.6183 13.6056C15.813 13.4644 15.9711 13.2787 16.0797 13.0642C16.1884 12.8496 16.2443 12.6122 16.2428 12.3717C16.2428 11.5466 15.5972 10.8752 14.8036 10.8752H12.6821C11.8885 10.8752 11.2429 11.5466 11.2429 12.3717C11.2415 12.6122 11.2974 12.8496 11.406 13.0642C11.5146 13.2787 11.6728 13.4644 11.8675 13.6056L12.9282 14.3626C12.9883 14.4055 13.0518 14.4436 13.1179 14.4766V16.4602C11.3467 16.2363 9.99292 15.0786 9.99292 13.6875C9.99292 13.5217 9.92707 13.3628 9.80986 13.2456C9.69265 13.1283 9.53368 13.0625 9.36792 13.0625C9.20216 13.0625 9.04319 13.1283 8.92598 13.2456C8.80877 13.3628 8.74292 13.5217 8.74292 13.6875C8.74292 15.9276 10.9859 17.75 13.7429 17.75ZM12.5937 12.588C12.5612 12.5622 12.5352 12.5292 12.5178 12.4916C12.5003 12.454 12.4918 12.4129 12.4931 12.3715C12.4931 12.2379 12.5798 12.125 12.6823 12.125H14.8039C14.9064 12.125 14.9931 12.2379 14.9931 12.3715C14.9943 12.4129 14.9858 12.4541 14.9684 12.4916C14.9509 12.5292 14.9249 12.5622 14.8924 12.588L13.8317 13.3448C13.8063 13.3644 13.7751 13.375 13.743 13.375C13.711 13.375 13.6798 13.3644 13.6544 13.3448L12.5937 12.588Z" fill="#626C83"/>
<path d="M17.4929 10.875C17.8381 10.875 18.1179 10.5952 18.1179 10.25C18.1179 9.90482 17.8381 9.625 17.4929 9.625C17.1477 9.625 16.8679 9.90482 16.8679 10.25C16.8679 10.5952 17.1477 10.875 17.4929 10.875Z" fill="#626C83"/>
<path d="M9.99292 10.875C10.3381 10.875 10.6179 10.5952 10.6179 10.25C10.6179 9.90482 10.3381 9.625 9.99292 9.625C9.64774 9.625 9.36792 9.90482 9.36792 10.25C9.36792 10.5952 9.64774 10.875 9.99292 10.875Z" fill="#626C83"/>
<path d="M30 23.375C30.4945 23.375 30.9778 23.2284 31.3889 22.9537C31.8 22.679 32.1205 22.2885 32.3097 21.8317C32.4989 21.3749 32.5484 20.8722 32.452 20.3873C32.3555 19.9023 32.1174 19.4569 31.7678 19.1072C31.4181 18.7576 30.9727 18.5195 30.4877 18.423C30.0028 18.3266 29.5001 18.3761 29.0433 18.5653C28.5865 18.7545 28.196 19.075 27.9213 19.4861C27.6466 19.8972 27.5 20.3805 27.5 20.875C27.5007 21.5378 27.7644 22.1733 28.2331 22.6419C28.7017 23.1106 29.3372 23.3743 30 23.375ZM30 19.625C30.2472 19.625 30.4889 19.6983 30.6945 19.8357C30.9 19.973 31.0602 20.1682 31.1548 20.3966C31.2495 20.6251 31.2742 20.8764 31.226 21.1189C31.1778 21.3613 31.0587 21.5841 30.8839 21.7589C30.7091 21.9337 30.4863 22.0528 30.2439 22.101C30.0014 22.1492 29.7501 22.1245 29.5216 22.0299C29.2932 21.9352 29.098 21.775 28.9607 21.5695C28.8233 21.3639 28.75 21.1222 28.75 20.875C28.7504 20.5436 28.8822 20.2259 29.1165 19.9916C29.3509 19.7572 29.6686 19.6254 30 19.625Z" fill="#626C83"/>
<path d="M38.7499 24.625H34.9999V16.5C35 16.3718 34.9604 16.2467 34.8867 16.1418L30.5116 9.8918C30.454 9.80947 30.3774 9.74225 30.2883 9.69584C30.1991 9.64943 30.1001 9.62519 29.9996 9.62519C29.8991 9.62519 29.8001 9.64943 29.711 9.69584C29.6218 9.74225 29.5452 9.80947 29.4876 9.8918L25.1126 16.1418C25.039 16.2467 24.9997 16.3718 24.9999 16.5V20.4112C24.1441 19.2605 23.0022 18.3059 21.5923 17.5695C22.9843 15.9332 23.7429 13.8071 23.7429 11.5C23.7462 10.4806 23.5916 9.46679 23.2845 8.49469C23.8933 8.17336 24.4176 7.71292 24.8149 7.1508C25.2123 6.58869 25.4713 5.94075 25.5711 5.25966C25.6708 4.57858 25.6085 3.88356 25.3891 3.23111C25.1697 2.57866 24.7994 1.98719 24.3084 1.50477C23.8173 1.02236 23.2194 0.662614 22.5632 0.454783C21.907 0.246953 21.2109 0.1969 20.5317 0.308695C19.8525 0.42049 19.2093 0.690976 18.6543 1.09817C18.0993 1.50536 17.6482 2.03777 17.3377 2.65211C16.1735 2.29339 14.9611 2.11562 13.7429 2.125C12.5248 2.11562 11.3125 2.29342 10.1484 2.65219C9.83787 2.03784 9.38679 1.50543 8.83179 1.09823C8.2768 0.69103 7.63355 0.420536 6.95434 0.308732C6.27512 0.196929 5.57911 0.246972 4.92288 0.454794C4.26665 0.662616 3.66871 1.02235 3.17768 1.50476C2.68665 1.98717 2.31637 2.57863 2.09696 3.23108C1.87754 3.88353 1.81517 4.57854 1.91492 5.25963C2.01467 5.94072 2.27373 6.58866 2.67103 7.15078C3.06833 7.71291 3.59267 8.17335 4.20142 8.49469C3.89434 9.46678 3.73967 10.4806 3.7429 11.5C3.7429 13.8071 4.50181 15.9333 5.8936 17.5695C2.85079 19.1587 1.05673 21.7652 0.688682 25.1584C0.6879 25.1662 0.687119 25.1741 0.686572 25.1819L0.626494 26.0398C0.624502 26.068 0.624502 26.0963 0.626494 26.1245C0.676467 26.8561 0.93939 27.5571 1.38286 28.1411C1.82633 28.7251 2.43098 29.1665 3.12228 29.4111C2.70991 30.2562 2.497 31.1847 2.49993 32.125C2.49993 35.2266 4.7429 37.75 7.49993 37.75C8.98431 37.75 10.3189 37.0178 11.2355 35.8584C12.0067 36.2794 12.8713 36.5 13.7499 36.5C14.6286 36.5 15.4932 36.2794 16.2644 35.8584C17.1809 37.0178 18.5156 37.75 19.9999 37.75C21.959 37.75 23.6575 36.4753 24.4772 34.625H38.7499C38.9157 34.625 39.0747 34.5592 39.1919 34.4419C39.3091 34.3247 39.3749 34.1658 39.3749 34V25.25C39.3749 25.0842 39.3091 24.9253 39.1919 24.8081C39.0747 24.6908 38.9157 24.625 38.7499 24.625ZM29.9999 11.3398L33.1745 15.875H26.8253L29.9999 11.3398ZM26.2499 17.125H33.7499V24.625H26.7252C26.6267 23.9863 26.4675 23.3585 26.2499 22.75V17.125ZM24.3755 29.4067C24.9644 29.1953 25.4915 28.8408 25.9094 28.375H26.8749V30.875H24.8739C24.7717 30.3662 24.6041 29.8726 24.3755 29.4067ZM25.5531 25.2817L25.6093 26.0827C25.5643 26.6118 25.3524 27.1128 25.0042 27.5136C24.656 27.9144 24.1894 28.1941 23.6718 28.3125C22.8883 27.3582 21.8156 26.71 20.6117 26.5439C20.4979 24.0018 19.641 21.6562 18.241 20.014C19.1237 19.6411 19.9422 19.1316 20.6666 18.5043C23.5295 19.8757 25.2163 22.2103 25.5531 25.2812V25.2817ZM21.2429 1.5C21.9296 1.49978 22.5973 1.72576 23.1427 2.14301C23.6881 2.56027 24.0809 3.14556 24.2603 3.80841C24.4398 4.47127 24.3959 5.17477 24.1354 5.81018C23.875 6.44559 23.4125 6.97752 22.8195 7.32375C22.3832 6.4095 21.791 5.57823 21.0695 4.86719C20.3249 4.13692 19.4596 3.54099 18.5119 3.10578C18.7832 2.6195 19.1793 2.21436 19.6594 1.93211C20.1394 1.64986 20.686 1.5007 21.2429 1.5ZM3.1179 4.625C3.11771 3.93267 3.34744 3.25987 3.77102 2.71223C4.1946 2.1646 4.78805 1.77313 5.4582 1.59928C6.12835 1.42543 6.83726 1.47905 7.47364 1.75172C8.11002 2.02439 8.63784 2.50066 8.97423 3.10578C8.02646 3.54095 7.16116 4.13688 6.41665 4.86719C5.69509 5.57818 5.10291 6.40943 4.66665 7.32367C4.19575 7.04778 3.80511 6.65362 3.53345 6.18026C3.2618 5.7069 3.11855 5.17077 3.1179 4.625ZM7.29313 5.75844C8.87876 4.19922 11.1093 3.375 13.7429 3.375C16.3765 3.375 18.607 4.19922 20.1927 5.75851C21.676 7.21711 22.4929 9.25609 22.4929 11.5C22.4929 13.7439 21.676 15.7829 20.1927 17.2415C18.607 18.8008 16.3767 19.625 13.7429 19.625C11.1091 19.625 8.87876 18.8008 7.29313 17.2416C5.80977 15.7829 4.9929 13.7439 4.9929 11.5C4.9929 9.25609 5.80977 7.21711 7.29313 5.75844ZM1.87657 26.0826L1.93267 25.2815C2.26946 22.2102 3.9561 19.8756 6.81915 18.5041C7.5467 19.1341 8.3692 19.6452 9.25626 20.0186C7.8604 21.6612 7.00259 24.0137 6.88813 26.5436C5.68321 26.7098 4.60931 27.3594 3.82579 28.3148C3.30567 28.1985 2.83621 27.9193 2.48566 27.5179C2.13511 27.1164 1.92174 26.6136 1.87657 26.0826ZM7.49993 36.5C5.43212 36.5 3.74993 34.5374 3.74993 32.125C3.74993 29.7126 5.43212 27.75 7.49993 27.75C9.56774 27.75 11.2499 29.7126 11.2499 32.125C11.2499 34.5374 9.56774 36.5 7.49993 36.5ZM13.7499 35.25C13.1058 35.2479 12.4715 35.0917 11.8999 34.7945C12.2978 33.961 12.5029 33.0486 12.4999 32.125C12.4999 29.2673 10.5955 26.9023 8.13962 26.5477C8.25978 24.1102 9.13548 21.882 10.5417 20.4636C11.5856 20.743 12.6622 20.8814 13.7429 20.875C14.8272 20.8815 15.9075 20.7423 16.9547 20.4609C18.3653 21.879 19.241 24.0983 19.3605 26.5478C16.9045 26.9021 14.9999 29.2672 14.9999 32.125C14.997 33.0486 15.2021 33.961 15.5999 34.7945C15.0284 35.0917 14.3941 35.2479 13.7499 35.25ZM19.9999 36.5C17.9321 36.5 16.2499 34.5374 16.2499 32.125C16.2499 29.7126 17.9321 27.75 19.9999 27.75C22.0677 27.75 23.7499 29.7126 23.7499 32.125C23.7499 34.5374 22.0677 36.5 19.9999 36.5ZM24.9999 32.125H27.4999C27.6657 32.125 27.8247 32.0592 27.9419 31.9419C28.0591 31.8247 28.1249 31.6658 28.1249 31.5V27.75C28.1249 27.5842 28.0591 27.4253 27.9419 27.3081C27.8247 27.1908 27.6657 27.125 27.4999 27.125H26.6528C26.7674 26.8026 26.837 26.4659 26.8595 26.1245C26.8615 26.0963 26.8615 26.068 26.8595 26.0398L26.848 25.875H29.3749V33.375H24.8739C24.9576 32.9636 24.9998 32.5448 24.9999 32.125ZM38.1249 33.375H30.6249V25.875H38.1249V33.375Z" fill="#626C83"/>
<path d="M32.5 32.125H36.25C36.3565 32.125 36.4613 32.0978 36.5543 32.0459C36.6474 31.994 36.7256 31.9192 36.7816 31.8286C36.8376 31.7379 36.8695 31.6345 36.8743 31.5281C36.8791 31.4216 36.8566 31.3158 36.809 31.2205L34.934 27.4705C34.882 27.3667 34.8023 27.2794 34.7035 27.2184C34.6048 27.1574 34.491 27.125 34.375 27.125C34.2589 27.125 34.1452 27.1574 34.0464 27.2184C33.9477 27.2794 33.8679 27.3667 33.816 27.4705L31.941 31.2205C31.8933 31.3158 31.8708 31.4216 31.8756 31.5281C31.8804 31.6345 31.9123 31.7379 31.9683 31.8286C32.0243 31.9192 32.1026 31.994 32.1956 32.0459C32.2887 32.0978 32.3934 32.125 32.5 32.125ZM34.375 29.1476L35.2387 30.875H33.5112L34.375 29.1476Z" fill="#626C83"/>
</svg>
