<svg width="40" height="28" viewBox="0 0 40 28" fill="none" xmlns="http://www.w3.org/2000/svg">
<path d="M39.375 23.5781H36.5062C36.5431 23.425 36.562 23.2679 36.5625 23.1099V23.1094V2.70312C36.5625 2.1644 36.3485 1.64775 35.9676 1.26681C35.5866 0.885881 35.07 0.671875 34.5312 0.671875H5.46875C4.93003 0.671875 4.41337 0.885881 4.03244 1.26681C3.65151 1.64775 3.4375 2.1644 3.4375 2.70312L3.4375 23.1094L3.4375 23.1099C3.43801 23.2679 3.45695 23.425 3.49376 23.5781H0.625C0.417799 23.5781 0.219085 23.6604 0.0725728 23.8069C-0.0739402 23.9535 -0.15625 24.1522 -0.15625 24.3594L-0.15625 24.5156L-0.15625 24.5158C-0.155374 25.2614 0.141204 25.9762 0.668426 26.5035C1.19565 27.0307 1.91046 27.3273 2.65607 27.3281H2.65625H37.3438H37.3439C38.0895 27.3273 38.8044 27.0307 39.3316 26.5035C39.8588 25.9762 40.1554 25.2614 40.1562 24.5158V24.5156V24.3594C40.1562 24.1522 40.0739 23.9535 39.9274 23.8069C39.7809 23.6604 39.5822 23.5781 39.375 23.5781ZM1.57495 25.1438H38.4244C38.3342 25.2983 38.2116 25.4325 38.064 25.5366C37.8532 25.6853 37.6015 25.7653 37.3435 25.7656L37.1875 25.7658V25.7688H2.65659C2.39824 25.7682 2.14639 25.6878 1.93549 25.5386L1.84524 25.6661L1.93549 25.5386C1.78757 25.4339 1.66488 25.299 1.57495 25.1438ZM5 2.70312C5 2.5788 5.04939 2.45958 5.13729 2.37167C5.2252 2.28376 5.34443 2.23438 5.46875 2.23438H34.5312C34.6556 2.23438 34.7748 2.28376 34.8627 2.37167L34.9732 2.26118L34.8627 2.37167C34.9506 2.45958 35 2.57881 35 2.70312V23.1094C35 23.2337 34.9506 23.3529 34.8627 23.4408C34.7748 23.5287 34.6556 23.5781 34.5312 23.5781H5.46875C5.34443 23.5781 5.2252 23.5287 5.13729 23.4408C5.04939 23.3529 5 23.2337 5 23.1094V2.70312Z" fill="#626C83" stroke="#626C83" stroke-width="0.3125"/>
<path d="M17.9688 22.9531H22.0312C22.2385 22.9531 22.4372 22.8708 22.5837 22.7243C22.7302 22.5778 22.8125 22.3791 22.8125 22.1719C22.8125 21.9647 22.7302 21.766 22.5837 21.6194C22.4372 21.4729 22.2385 21.3906 22.0312 21.3906H17.9688C17.7616 21.3906 17.5628 21.4729 17.4163 21.6194C17.2698 21.766 17.1875 21.9647 17.1875 22.1719C17.1875 22.3791 17.2698 22.5778 17.4163 22.7243C17.5628 22.8708 17.7616 22.9531 17.9688 22.9531Z" fill="#626C83" stroke="#626C83" stroke-width="0.3125"/>
<path d="M20 4.77187C20.4746 4.77187 20.8594 4.38712 20.8594 3.9125C20.8594 3.43788 20.4746 3.05312 20 3.05312C19.5254 3.05312 19.1406 3.43788 19.1406 3.9125C19.1406 4.38712 19.5254 4.77187 20 4.77187Z" fill="#626C83" stroke="#626C83" stroke-width="0.3125"/>
</svg>
