<svg width="4" height="14" viewBox="0 0 4 14" fill="none" xmlns="http://www.w3.org/2000/svg">
<path d="M2 2.625C1.65482 2.625 1.375 2.34518 1.375 2C1.375 1.65482 1.65482 1.375 2 1.375C2.34518 1.375 2.625 1.65482 2.625 2C2.625 2.34518 2.34518 2.625 2 2.625Z" stroke="#40444C" stroke-width="1.5" stroke-linecap="round" stroke-linejoin="round"/>
<path d="M2 7.625C1.65482 7.625 1.375 7.34518 1.375 7C1.375 6.65482 1.65482 6.375 2 6.375C2.34518 6.375 2.625 6.65482 2.625 7C2.625 7.34518 2.34518 7.625 2 7.625Z" stroke="#40444C" stroke-width="1.5" stroke-linecap="round" stroke-linejoin="round"/>
<path d="M2 12.625C1.65482 12.625 1.375 12.3452 1.375 12C1.375 11.6548 1.65482 11.375 2 11.375C2.34518 11.375 2.625 11.6548 2.625 12C2.625 12.3452 2.34518 12.625 2 12.625Z" stroke="#40444C" stroke-width="1.5" stroke-linecap="round" stroke-linejoin="round"/>
</svg>
